# xmcd
#
# Track frame offsets: 
#        150
#        505
#        47266
#        97095
#        145442
#        207054
#        210105
#        259788
#
# Disc length: 4137 seconds
#
# Revision: 3
# Processed by: cddbd v1.5.2PL0 Copyright (c) Steve Scherf et al.
# Submitted via: ExactAudioCopy v1.0b4
#
DISCID=61102708
DTITLE=Miles Davis - At The Fillmore 1970: Bootleg Series Vol. 3 (Disc
DTITLE=1) Fillmore East 1970-6-17
DYEAR=1970
DGENRE=Jazz
TTITLE0=Introduction By Bill Graham
TTITLE1=Directions
TTITLE2=The Mask
TTITLE3=It's About That Time
TTITLE4=Bitches Brew
TTITLE5=The Theme
TTITLE6=Paraphernalia [Fillmore West 1970-4-11]
TTITLE7=Footprints [Fillmore West 1970-4-11]
EXTD=YEAR: 1970
EXTT0=Fillmore East, June 17, 1970
EXTT1=Fillmore East, June 17, 1970
EXTT2=Fillmore East, June 17, 1970
EXTT3=Fillmore East, June 17, 1970
EXTT4=Fillmore East, June 17, 1970
EXTT5=Fillmore East, June 17, 1970
EXTT6=Fillmore West, April 11, 1970
EXTT7=Fillmore West, April 11, 1970
PLAYORDER=
